<svg xmlns="http://www.w3.org/2000/svg" width="697.839" height="381.954" viewBox="0 0 697.839 381.954">
    <g transform="translate(-20.092 -642.008)">
        <path d="M369.012,662.582A127.366,127.366,0,1,0,496.377,789.948,127.511,127.511,0,0,0,369.012,662.582Zm63.312,65.41s-12.537,20.532-5.015,30.561a170.275,170.275,0,0,0-30.907,3.52c.081-4.581.18-9.1.292-13.475q3.708-1.124,7.63-2.164s11.7-5.432,2.926-15.88c0,0,12.537-9.612,14.208-15.88C421.458,714.674,426.891,725.847,432.324,727.992ZM318.39,694.277c.691-5.45,7.248-7.923,11.942-8.549,5.561-.74,10.184,2.4,13.464,6.615.33.423,4.861,6.766,4.217,7.286,8.636-6.964,15.322,0,15.322,0-7.522,6.13-7.8,17.831-7.8,17.831s-.209,8.793-.548,21.95h25.927c-.339-13.155-.548-21.95-.548-21.95s-.279-11.7-7.8-17.831c0,0,6.686-6.964,15.322,0-.637-.514,3.757-6.68,4.074-7.088,3.154-4.06,7.568-7.443,12.976-6.9,4.53.455,10.657,2.5,12.224,7.309,1.432,4.395-1.558,10.14-6.706,9.744,0,0-7.244-.558-6.687-5.015,0,0-3.9-.279-5.572,5.015-.752,2.381-1.729,21.739-2.324,45.283l-.022.875c-.107,4.36-.2,8.856-.279,13.41l-.015.852c-.046,2.8-.086,5.627-.118,8.451a67.656,67.656,0,0,0-13.75-3.161l-.024-.877-.02-.692c-.122-4.443-.24-8.765-.35-12.887-.007-.292-.015-.582-.023-.872q-.079-2.982-.153-5.806H354.782c-.155,5.923-.329,12.422-.517,19.208a138.47,138.47,0,0,0-13.758,9.633c-.293-34.39-1.764-70.125-2.8-73.417-1.672-5.294-5.572-5.015-5.572-5.015.557,4.457-6.687,5.015-6.687,5.015C320.729,703.057,317.88,698.3,318.39,694.277Zm74.233,184.772s-8.915,9.751-14.766,1.114c0,0,8.08-2.229,6.408-35.661-.259-5.175-.531-11.8-.806-19.283H352.44c-.275,7.488-.547,14.108-.806,19.283-1.672,33.432,6.408,35.661,6.408,35.661-5.851,8.637-14.766-1.114-14.766-1.114-20.06,30.089-32.6,6.408-32.6,6.408,2.508-15.881,11.144-5.851,11.144-5.851,7.8,14.209,14.766-17.274,17.552-49.87.784-9.17,1.127-22.815,1.177-37.811a70.723,70.723,0,0,1,13.287-10.37c-.376,12.99-.784,26.224-1.192,37.873h30.605c-.438-12.508-.876-26.845-1.275-40.741a71.33,71.33,0,0,1,13.369,5.327c-.055,18.036.258,34.961,1.178,45.722,2.786,32.6,9.751,64.079,17.552,49.87,0,0,8.636-10.03,11.144,5.851C425.22,885.457,412.683,909.138,392.623,879.049Zm44.716-35.243s-12.119,11.7-12.119,21.73c0,0-9.194-17.133-20.9-20.477,0,0,29.364-41.113-8.159-61.549-.269-.147-.54-.293-.816-.438a73,73,0,0,0-13.4-5.264c-.279-.081-.558-.162-.841-.242a122.139,122.139,0,0,0-14.816-3.132,75.064,75.064,0,0,0-12.426,6.093,71.975,71.975,0,0,0-13.313,10.184c-11.215,11.033-19.7,28.064-9.364,52.259,0,0-12.538,17.97-12.538,22.566,0,0-6.686-15.88-17.969-18.387,0,0,20.338-38.427,0-107.739,0,0,12.955-10.528,14.208-16.378,0,0,8.776,13.115,15.045,16.378,0,0-11.284,17.89-7.94,57.173,0,0,5.269-8.7,18.518-19.405a137.411,137.411,0,0,1,13.722-9.726,166.911,166.911,0,0,1,26.23-13.178c.11,4.145.228,8.492.352,12.956-1.063.523-2.08,1.077-3.036,1.666a6.81,6.81,0,0,1,3.079-.131c.259.023.536.052.837.09a72.588,72.588,0,0,1,13.727,3.577l.82.281c5.545,1.922,12.689,4.733,21.868,8.825,0,0,9.194,4.6,19.224,4.6C437.339,786.135,419.787,807.448,437.339,843.806Z" fill="none"/>
        <rect width="27.631" height="18.482" transform="translate(116.656 968.425)" fill="none"/>
        <path d="M369.012,651.8c-76.173,0-138.143,61.97-138.143,138.143s61.97,138.143,138.143,138.143,138.143-61.97,138.143-138.143S445.184,651.8,369.012,651.8Zm0,269.428c-72.392,0-131.285-58.894-131.285-131.285S296.62,658.663,369.012,658.663,500.3,717.556,500.3,789.948,441.4,921.233,369.012,921.233Z" fill="none"/>
        <rect width="27.631" height="18.482" transform="translate(588.473 968.425)" fill="none"/>
        <path d="M58.9,1011.025l-17.56-19.777L58.9,972.213a9.239,9.239,0,0,0,1.709-3.186,9.488,9.488,0,0,0,.369-3.464,8.914,8.914,0,0,0-.971-3.376,9.937,9.937,0,0,0-2.312-2.911L29.056,990.789V968.335a8.815,8.815,0,0,0-.738-3.607,9.457,9.457,0,0,0-1.942-2.862,9.1,9.1,0,0,0-6.284-2.59v64.411a8.3,8.3,0,0,0,3.419-.742,8.935,8.935,0,0,0,2.865-1.988,10.04,10.04,0,0,0,1.942-2.91,8.8,8.8,0,0,0,.738-3.6v-10.165l5.731-6.1,23.47,25.779a7.2,7.2,0,0,0,2.173-2.911,10.762,10.762,0,0,0,.783-3.463,8.947,8.947,0,0,0-.508-3.468A9.571,9.571,0,0,0,58.9,1011.025Z" fill="#4cae50"/>
        <path d="M150.939,961.912a9.3,9.3,0,0,0-3-1.939,9.594,9.594,0,0,0-3.648-.7H116.471a8.531,8.531,0,0,0-6.19,2.542,9.087,9.087,0,0,0-2.774,6.238v55.906a8.724,8.724,0,0,0,3.6-.742,9.126,9.126,0,0,0,2.914-2.033,9.277,9.277,0,0,0,1.939-3,9.592,9.592,0,0,0,.693-3.648V996.056h27.631v18.482a9.049,9.049,0,0,0,.738,3.648,9.589,9.589,0,0,0,5.037,5.034,9.041,9.041,0,0,0,3.648.742V968.425a8.81,8.81,0,0,0-.738-3.6A9.221,9.221,0,0,0,150.939,961.912Zm-6.652,24.995H116.656V968.425h27.631Z" fill="#4cae50"/>
        <path d="M239.277,959.555a8.637,8.637,0,0,0-5.452,4.529L223.2,982.472l-10.625-18.388a10.538,10.538,0,0,0-2.587-2.726,9.86,9.86,0,0,0-3.143-1.525,9.351,9.351,0,0,0-3.464-.278,9.065,9.065,0,0,0-3.468,1.107l18.577,32.069v31.231a9.159,9.159,0,0,0,6.6-2.775,10.168,10.168,0,0,0,1.987-2.952,8.746,8.746,0,0,0,.738-3.606l.094-22.914-.094-.094,18.577-31.234A9.364,9.364,0,0,0,239.277,959.555Z" fill="#4cae50"/>
        <path d="M331.4,1017.309a9.626,9.626,0,0,0-3-2.033,9.089,9.089,0,0,0-3.652-.738H301.741V968.425a9,9,0,0,0-9.149-9.149v64.686h41.584a9.151,9.151,0,0,0-.738-3.652A9.709,9.709,0,0,0,331.4,1017.309Z" fill="#4cae50"/>
        <path d="M417.341,968.425v46.113H389.71V968.425a8.826,8.826,0,0,0-.738-3.6,9.584,9.584,0,0,0-1.988-2.91,8.773,8.773,0,0,0-2.956-1.939,9.6,9.6,0,0,0-3.652-.7v55.262a8.777,8.777,0,0,0,2.59,6.468,9.111,9.111,0,0,0,6.469,2.681l.275.275h27.352v-.275a9.62,9.62,0,0,0,3.652-.7,8.772,8.772,0,0,0,2.955-1.94,9.567,9.567,0,0,0,1.988-2.91,8.807,8.807,0,0,0,.738-3.6h.091V959.276a9,9,0,0,0-9.145,9.149Z" fill="#4cae50"/>
        <path d="M524.529,964.637l-21.716,37.612-21.528-37.612a9.034,9.034,0,0,0-3.419-3.878,9.388,9.388,0,0,0-5.177-1.483v64.686a9.074,9.074,0,0,0,3.652-.742,9.6,9.6,0,0,0,5.034-5.034,9.052,9.052,0,0,0,.742-3.648V984.78l15.429,26.987A8.286,8.286,0,0,0,500,1014.03a12.991,12.991,0,0,0,3.094,1.156,27.061,27.061,0,0,0,2.635-1.111,7.284,7.284,0,0,0,2.542-2.218L523.7,984.968v29.57a9.068,9.068,0,0,0,.741,3.648,9.607,9.607,0,0,0,5.034,5.034,9.064,9.064,0,0,0,3.652.742V959.276a9.378,9.378,0,0,0-5.176,1.483A9.028,9.028,0,0,0,524.529,964.637Z" fill="#4cae50"/>
        <path d="M622.757,961.912a9.3,9.3,0,0,0-3.005-1.939,9.59,9.59,0,0,0-3.648-.7H588.289a8.527,8.527,0,0,0-6.19,2.542,9.089,9.089,0,0,0-2.775,6.238v55.906a8.723,8.723,0,0,0,3.6-.742,9.126,9.126,0,0,0,2.914-2.033,9.278,9.278,0,0,0,1.939-3,9.593,9.593,0,0,0,.693-3.648V996.056H616.1v18.482a9.067,9.067,0,0,0,.738,3.648,9.589,9.589,0,0,0,5.037,5.034,9.049,9.049,0,0,0,3.649.742V968.425a8.809,8.809,0,0,0-.738-3.6A9.237,9.237,0,0,0,622.757,961.912ZM616.1,986.907H588.473V968.425H616.1Z" fill="#4cae50"/>
        <path d="M714.419,959.973a8.9,8.9,0,0,0-2.911,1.939,9.5,9.5,0,0,0-1.984,2.91,8.764,8.764,0,0,0-.742,3.6v18.482H681.155V968.425a8.763,8.763,0,0,0-.741-3.6,9.125,9.125,0,0,0-2.033-2.91,9.3,9.3,0,0,0-3-1.939,9.6,9.6,0,0,0-3.652-.7v64.686a9.074,9.074,0,0,0,3.652-.742,9.6,9.6,0,0,0,5.034-5.034,9.068,9.068,0,0,0,.741-3.648V996.056h27.627v18.482a9.07,9.07,0,0,0,.742,3.648,9.888,9.888,0,0,0,1.984,3,9.158,9.158,0,0,0,2.911,2.033,8.524,8.524,0,0,0,3.512.742V959.276A9.012,9.012,0,0,0,714.419,959.973Z" fill="#4cae50"/>
        <path d="M369.012,658.663c-72.392,0-131.285,58.893-131.285,131.285S296.62,921.233,369.012,921.233,500.3,862.339,500.3,789.948,441.4,658.663,369.012,658.663Zm0,258.651A127.366,127.366,0,1,1,496.377,789.948,127.511,127.511,0,0,1,369.012,917.314Z" fill="#4cae50"/>
        <path d="M516.952,789.948c0-81.575-66.366-147.94-147.94-147.94s-147.941,66.365-147.941,147.94,66.366,147.94,147.941,147.94S516.952,871.522,516.952,789.948ZM369.012,928.091c-76.173,0-138.143-61.97-138.143-138.143S292.839,651.8,369.012,651.8s138.143,61.97,138.143,138.143S445.184,928.091,369.012,928.091Z" fill="#55557b"/>
        <path d="M407.25,730.554c8.776,10.448-2.926,15.88-2.926,15.88q-3.929,1.035-7.63,2.164c-.112,4.376-.211,8.894-.292,13.475a170.275,170.275,0,0,1,30.907-3.52c-7.522-10.029,5.015-30.561,5.015-30.561-5.433-2.145-10.866-13.318-10.866-13.318C419.787,720.942,407.25,730.554,407.25,730.554Z" fill="#55557b"/>
        <path d="M418.115,781.538c-9.179-4.092-16.323-6.9-21.868-8.825l-.82-.281a72.588,72.588,0,0,0-13.727-3.577c-.3-.038-.578-.067-.837-.09a6.81,6.81,0,0,0-3.079.131c.956-.589,1.973-1.143,3.036-1.666-.124-4.464-.242-8.811-.352-12.956a166.911,166.911,0,0,0-26.23,13.178,137.411,137.411,0,0,0-13.722,9.726C327.267,787.881,322,796.583,322,796.583c-3.344-39.283,7.94-57.173,7.94-57.173-6.269-3.263-15.045-16.378-15.045-16.378-1.253,5.85-14.208,16.378-14.208,16.378,20.338,69.312,0,107.739,0,107.739,11.283,2.507,17.969,18.387,17.969,18.387,0-4.6,12.538-22.566,12.538-22.566-10.34-24.195-1.851-41.226,9.364-52.259a71.975,71.975,0,0,1,13.313-10.184,75.064,75.064,0,0,1,12.426-6.093,122.139,122.139,0,0,1,14.816,3.132c.283.08.562.161.841.242a73,73,0,0,1,13.4,5.264c.276.145.547.291.816.438,37.523,20.436,8.159,61.549,8.159,61.549,11.7,3.344,20.9,20.477,20.9,20.477,0-10.029,12.119-21.73,12.119-21.73-17.552-36.358,0-57.671,0-57.671C427.309,786.135,418.115,781.538,418.115,781.538Z" fill="#55557b"/>
        <path d="M414.076,879.606c-7.8,14.209-14.766-17.274-17.552-49.87-.92-10.761-1.233-27.686-1.178-45.722a71.33,71.33,0,0,0-13.369-5.327c.4,13.9.837,28.233,1.275,40.741H352.647c.408-11.649.816-24.883,1.192-37.873a70.723,70.723,0,0,0-13.287,10.37c-.05,15-.393,28.641-1.177,37.811-2.786,32.6-9.751,64.079-17.552,49.87,0,0-8.636-10.03-11.144,5.851,0,0,12.537,23.681,32.6-6.408,0,0,8.915,9.751,14.766,1.114,0,0-8.08-2.229-6.408-35.661.259-5.175.531-11.8.806-19.283h31.019c.275,7.488.547,14.108.806,19.283,1.672,33.432-6.408,35.661-6.408,35.661,5.851,8.637,14.766-1.114,14.766-1.114,20.06,30.089,32.6,6.408,32.6,6.408C422.712,869.576,414.076,879.606,414.076,879.606Z" fill="#55557b"/>
        <path d="M325.445,702.694s7.244-.558,6.687-5.015c0,0,3.9-.279,5.572,5.015,1.039,3.292,2.51,39.027,2.8,73.417a138.47,138.47,0,0,1,13.758-9.633c.188-6.786.362-13.285.517-19.208h26.335q.073,2.821.153,5.806c.008.29.016.58.023.872.11,4.122.228,8.444.35,12.887l.02.692.024.877a67.656,67.656,0,0,1,13.75,3.161c.032-2.824.072-5.647.118-8.451l.015-.852c.077-4.554.172-9.05.279-13.41l.022-.875c.6-23.544,1.572-42.9,2.324-45.283,1.672-5.294,5.572-5.015,5.572-5.015-.557,4.457,6.686,5.015,6.686,5.015,5.149.4,8.139-5.349,6.707-9.744-1.567-4.808-7.694-6.854-12.224-7.309-5.408-.543-9.822,2.84-12.976,6.9-.317.408-4.711,6.574-4.074,7.088-8.636-6.964-15.322,0-15.322,0,7.522,6.13,7.8,17.831,7.8,17.831s.209,8.795.548,21.95H354.986c.339-13.157.548-21.95.548-21.95s.279-11.7,7.8-17.831c0,0-6.686-6.964-15.322,0,.644-.52-3.887-6.863-4.217-7.286-3.28-4.211-7.9-7.355-13.464-6.615-4.694.626-11.251,3.1-11.942,8.549C317.88,698.3,320.729,703.057,325.445,702.694Z" fill="#55557b"/>
    </g>
</svg>
